<?xml version="1.0" encoding="UTF-8" standalone="no"?>
<svg
   xmlns:dc="http://purl.org/dc/elements/1.1/"
   xmlns:cc="http://creativecommons.org/ns#"
   xmlns:rdf="http://www.w3.org/1999/02/22-rdf-syntax-ns#"
   xmlns:svg="http://www.w3.org/2000/svg"
   xmlns="http://www.w3.org/2000/svg"
   xmlns:sodipodi="http://sodipodi.sourceforge.net/DTD/sodipodi-0.dtd"
   xmlns:inkscape="http://www.inkscape.org/namespaces/inkscape"
   width="55.416721mm"
   height="10.122956mm"
   viewBox="0 0 55.416721 10.122956"
   version="1.1"
   id="svg902"
   inkscape:version="1.0.1 (3bc2e813f5, 2020-09-07)"
   sodipodi:docname="catcafelogo.svg">
  <defs
     id="defs896">
    <inkscape:path-effect
       only_selected="false"
       apply_with_weight="true"
       apply_no_weight="true"
       helper_size="0"
       steps="2"
       weight="33.333333"
       is_visible="true"
       id="path-effect1529"
       effect="bspline"
       lpeversion="0" />
  </defs>
  <sodipodi:namedview
     id="base"
     pagecolor="#ffffff"
     bordercolor="#666666"
     borderopacity="1.0"
     inkscape:pageopacity="0.0"
     inkscape:pageshadow="2"
     inkscape:zoom="0.35"
     inkscape:cx="136.15309"
     inkscape:cy="579.12999"
     inkscape:document-units="mm"
     inkscape:current-layer="layer1"
     inkscape:document-rotation="0"
     showgrid="false"
     fit-margin-top="0"
     fit-margin-left="0"
     fit-margin-right="0"
     fit-margin-bottom="0"
     inkscape:window-width="1514"
     inkscape:window-height="752"
     inkscape:window-x="122"
     inkscape:window-y="114"
     inkscape:window-maximized="0" />
  <metadata
     id="metadata899">
    <rdf:RDF>
      <cc:Work
         rdf:about="">
        <dc:format>image/svg+xml</dc:format>
        <dc:type
           rdf:resource="http://purl.org/dc/dcmitype/StillImage" />
        <dc:title></dc:title>
      </cc:Work>
    </rdf:RDF>
  </metadata>
  <g
     inkscape:label="Layer 1"
     inkscape:groupmode="layer"
     id="layer1"
     transform="translate(-69.809496,5.0614778)">
    <g
       id="g1527"
       transform="matrix(0.27904453,0,0,0.27508785,81.111193,-39.939801)">
      <path
         style="fill:#000000;fill-rule:nonzero;stroke:#000000;stroke-width:0.513776;stroke-linecap:round;stroke-linejoin:miter;stroke-miterlimit:4.9;stroke-dasharray:none;stroke-opacity:1"
         d="m 84.800283,141.42818 c -4.18445,0 0,21.90369 2.789635,21.90369 2.789635,0 8.368905,0 11.158539,0 2.789633,0 6.974083,-21.90369 2.789633,-21.90369 -4.184447,0 -12.553357,0 -16.737807,0 z"
         id="path1519"
         inkscape:connector-curvature="0"
         sodipodi:nodetypes="ccccc"
         inkscape:path-effect="#path-effect1529"
         inkscape:original-d="m 80.615833,141.42818 4.18445,21.90369 c 5.57927,0 11.15854,0 16.737807,0 l 4.18445,-21.90369 c -8.368897,0 -16.737807,0 -25.106707,0 z" />
      <path
         sodipodi:nodetypes="zzzzzzzzzzzzzzzzzzzzzzzzz"
         inkscape:connector-curvature="0"
         id="path1521"
         d="m 96.444043,140.55901 c 0.33426,-0.44713 1.62757,-1.71884 2.18151,-2.51766 0.55394,-0.79882 0.72985,-1.72057 0.70127,-2.37535 -0.0286,-0.65477 0.0449,-0.84001 -0.25482,-1.31004 -0.29974,-0.47003 -0.87578,-1.02703 -1.38161,-1.24506 -0.50582,-0.21803 -0.81979,-0.47328 -1.26047,-0.68256 -0.44068,-0.20927 -0.89192,-0.42424 -1.03176,-1.05444 -0.13984,-0.6302 -0.56204,-1.55277 -0.3705,-2.18852 0.19154,-0.63576 0.52082,-0.88634 1.04631,-1.25822 0.52548,-0.37189 1.41154,-0.87796 1.92143,-1.03869 0.50989,-0.16074 0.39687,-0.1189 0.12542,0.08 -0.27146,0.1989 -0.46198,0.39773 -0.73281,0.44019 -0.27083,0.0425 -0.95906,0.38221 -0.82354,0.31467 0.13552,-0.0675 0.83743,-0.52494 0.37929,-0.19479 -0.45814,0.33015 -0.63335,0.47585 -0.96072,0.95614 -0.32737,0.48028 -0.18274,1.2913 -0.0152,1.89257 0.16757,0.60127 0.45004,1.31815 0.99433,1.49722 0.54428,0.17908 0.73535,0.45927 1.20632,0.64982 0.47097,0.19054 1.02564,0.55613 1.34566,0.97865 0.32002,0.42252 0.570607,0.7449 0.555497,1.35906 -0.0152,0.61416 0.0685,1.21268 -0.305267,2.089 -0.37378,0.87632 -1.6132,2.13666 -2.0903,2.69413 -0.47709,0.55747 -0.45967,0.59769 -0.71558,0.68028 -0.2559,0.0826 -0.42878,0.19468 -0.51454,0.23361 -0.0857,0.0389 -0.3342,0.44713 6e-5,-1e-5 z"
         style="fill:#000000;fill-opacity:1;stroke:none;stroke-width:1.72338;stroke-linecap:round;stroke-miterlimit:4.8;stroke-dasharray:none;stroke-dashoffset:0;stroke-opacity:1" />
      <path
         style="fill:#000000;fill-opacity:1;stroke:none;stroke-width:1.72338;stroke-linecap:round;stroke-miterlimit:4.8;stroke-dasharray:none;stroke-dashoffset:0;stroke-opacity:1"
         d="m 92.259583,140.55901 c 0.33427,-0.44713 1.62757,-1.71884 2.18152,-2.51766 0.55394,-0.79882 0.72985,-1.72057 0.70127,-2.37535 -0.0286,-0.65477 0.0449,-0.84001 -0.25482,-1.31004 -0.29974,-0.47003 -0.87578,-1.02703 -1.38161,-1.24506 -0.50583,-0.21803 -0.8198,-0.47328 -1.26048,-0.68256 -0.44067,-0.20927 -0.89191,-0.42424 -1.03175,-1.05444 -0.13984,-0.6302 -0.56204,-1.55277 -0.3705,-2.18852 0.19154,-0.63576 0.52082,-0.88634 1.0463,-1.25822 0.52549,-0.37189 1.41155,-0.87796 1.92144,-1.03869 0.50989,-0.16074 0.39687,-0.1189 0.12542,0.08 -0.27146,0.1989 -0.46198,0.39773 -0.73281,0.44019 -0.27083,0.0425 -0.95906,0.38221 -0.82354,0.31467 0.13552,-0.0675 0.83743,-0.52494 0.37928,-0.19479 -0.45814,0.33015 -0.63334,0.47585 -0.96071,0.95614 -0.32737,0.48028 -0.18275,1.2913 -0.0152,1.89257 0.16756,0.60127 0.45004,1.31815 0.99432,1.49722 0.54429,0.17908 0.73536,0.45927 1.20633,0.64982 0.47096,0.19054 1.02564,0.55613 1.34566,0.97865 0.32002,0.42252 0.57061,0.7449 0.5555,1.35906 -0.0152,0.61416 0.0685,1.21268 -0.30528,2.089 -0.37378,0.87632 -1.61319,2.13666 -2.09029,2.69413 -0.47709,0.55747 -0.45968,0.59769 -0.71558,0.68028 -0.2559,0.0826 -0.42879,0.19468 -0.51454,0.23361 -0.0858,0.0389 -0.33421,0.44713 5e-5,-1e-5 z"
         id="path1523"
         inkscape:connector-curvature="0"
         sodipodi:nodetypes="zzzzzzzzzzzzzzzzzzzzzzzzz" />
      <path
         sodipodi:nodetypes="zzzzzzzzzzzzzzzzzzzzzzzzz"
         inkscape:connector-curvature="0"
         id="path1525"
         d="m 88.075133,140.55901 c 0.33427,-0.44713 1.62757,-1.71884 2.18152,-2.51766 0.55394,-0.79882 0.72985,-1.72057 0.70127,-2.37535 -0.0286,-0.65477 0.0449,-0.84001 -0.25482,-1.31004 -0.29974,-0.47003 -0.87578,-1.02703 -1.38161,-1.24506 -0.50583,-0.21803 -0.8198,-0.47328 -1.26048,-0.68256 -0.44067,-0.20927 -0.89191,-0.42424 -1.03175,-1.05444 -0.13984,-0.6302 -0.56204,-1.55277 -0.3705,-2.18852 0.19154,-0.63576 0.52082,-0.88634 1.0463,-1.25822 0.52549,-0.37189 1.41155,-0.87796 1.92144,-1.03869 0.50989,-0.16074 0.39687,-0.1189 0.12542,0.08 -0.27146,0.1989 -0.46198,0.39773 -0.73281,0.44019 -0.27083,0.0425 -0.95906,0.38221 -0.82354,0.31467 0.13552,-0.0675 0.83743,-0.52494 0.37928,-0.19479 -0.45814,0.33015 -0.63334,0.47585 -0.96071,0.95614 -0.32737,0.48028 -0.18275,1.2913 -0.0152,1.89257 0.16756,0.60127 0.45004,1.31815 0.99432,1.49722 0.54429,0.17908 0.73536,0.45927 1.20633,0.64982 0.47096,0.19054 1.02564,0.55613 1.34565,0.97865 0.32002,0.42252 0.57062,0.7449 0.55551,1.35906 -0.0152,0.61416 0.0685,1.21268 -0.30528,2.089 -0.37378,0.87632 -1.61319,2.13666 -2.09029,2.69413 -0.47709,0.55747 -0.45968,0.59769 -0.71558,0.68028 -0.2559,0.0826 -0.42879,0.19468 -0.51454,0.23361 -0.0858,0.0389 -0.33421,0.44713 5e-5,-1e-5 z"
         style="fill:#000000;fill-opacity:1;stroke:none;stroke-width:1.72338;stroke-linecap:round;stroke-miterlimit:4.8;stroke-dasharray:none;stroke-dashoffset:0;stroke-opacity:1" />
    </g>
    <g
       aria-label="CAT CAFE"
       id="g1543"
       style="font-size:10.5833px;line-height:1.25;font-family:'Fredoka One';-inkscape-font-specification:'Fredoka One';letter-spacing:0.510646px;stroke-width:0.264583"
       transform="translate(-2.5464119,-108.56452)">
      <path
         d="m 77.66342,111.39732 0.190499,-0.13758 q 0.359833,-0.21167 0.507999,-0.21167 0.328082,0 0.709081,0.59267 0.232832,0.37041 0.232832,0.59266 0,0.22225 -0.148166,0.37042 -0.137583,0.14816 -0.328082,0.26458 -0.1905,0.11642 -0.370416,0.22225 -0.169332,0.10583 -0.709081,0.27516 -0.539748,0.16934 -1.047746,0.16934 -0.497415,0 -1.015997,-0.127 -0.507998,-0.13759 -1.05833,-0.4445 -0.539748,-0.3175 -0.973664,-0.762 -0.433915,-0.45508 -0.719664,-1.15358 -0.275166,-0.70908 -0.275166,-1.53458 0,-0.82549 0.275166,-1.49224 0.275166,-0.67733 0.698498,-1.11125 0.433915,-0.4445 0.984247,-0.74083 1.037163,-0.5715 2.08491,-0.5715 0.497415,0 1.005413,0.15875 0.518582,0.14817 0.783164,0.30692 l 0.253999,0.14816 q 0.1905,0.11642 0.296333,0.1905 0.275166,0.22225 0.275166,0.508 0,0.27517 -0.22225,0.58208 -0.412748,0.5715 -0.740831,0.5715 -0.190499,0 -0.539748,-0.23283 -0.444498,-0.35983 -1.185329,-0.35983 -0.687915,0 -1.354663,0.47624 -0.317499,0.23284 -0.529165,0.65617 -0.211666,0.42333 -0.211666,0.96308 0,0.52916 0.211666,0.9525 0.211666,0.42333 0.539749,0.66674 0.645581,0.46567 1.344079,0.46567 0.328082,0 0.613831,-0.0847 0.296332,-0.0847 0.423332,-0.16933 z"
         style="stroke-width:0.264583"
         id="path1531" />
      <path
         d="m 84.778029,106.22209 2.857491,5.90548 q 0.179916,0.35983 0.179916,0.53975 0,0.38099 -0.613831,0.68791 -0.359833,0.17992 -0.571499,0.17992 -0.201082,0 -0.338665,-0.0953 -0.127,-0.0952 -0.1905,-0.20109 -0.05292,-0.10583 -0.158749,-0.31749 l -0.550332,-1.143 h -2.931574 l -0.550331,1.143 q -0.105833,0.21166 -0.169333,0.30691 -0.05292,0.0953 -0.190499,0.20108 -0.127,0.0952 -0.338666,0.0952 -0.201083,0 -0.560915,-0.17991 -0.613831,-0.29634 -0.613831,-0.67733 0,-0.17992 0.179916,-0.53975 l 2.857491,-5.91607 q 0.116416,-0.24341 0.349249,-0.39158 0.243415,-0.14816 0.507998,-0.14816 0.571498,0 0.846664,0.55033 z m -0.857247,2.53999 -0.698498,1.44991 h 1.407579 z"
         style="stroke-width:0.264583"
         id="path1533" />
      <path
         d="m 87.437075,105.66117 h 5.884315 q 0.338665,0 0.497415,0.0847 0.158749,0.0741 0.211666,0.24341 0.05292,0.16934 0.05292,0.4445 0,0.27517 -0.05292,0.4445 -0.05292,0.15875 -0.179916,0.22225 -0.1905,0.0953 -0.539748,0.0953 h -2.021411 v 5.3234 q 0,0.24342 -0.02117,0.35983 -0.01058,0.11642 -0.09525,0.27517 -0.07408,0.14816 -0.275166,0.21166 -0.201082,0.0635 -0.529165,0.0635 -0.328082,0 -0.529165,-0.0635 -0.190499,-0.0635 -0.275165,-0.21166 -0.07408,-0.15875 -0.09525,-0.27517 -0.01058,-0.127 -0.01058,-0.37041 v -5.31282 h -2.031994 q -0.338666,0 -0.497415,-0.0741 -0.15875,-0.0847 -0.211666,-0.254 -0.05292,-0.16933 -0.05292,-0.4445 0,-0.27517 0.05292,-0.43392 0.05292,-0.16933 0.179916,-0.23283 0.190499,-0.0953 0.539748,-0.0953 z"
         style="stroke-width:0.264583"
         id="path1535" />
      <path
         d="m 103.21146,111.39732 0.1905,-0.13758 q 0.35983,-0.21167 0.508,-0.21167 0.32808,0 0.70908,0.59267 0.23283,0.37041 0.23283,0.59266 0,0.22225 -0.14817,0.37042 -0.13758,0.14816 -0.32808,0.26458 -0.1905,0.11642 -0.37041,0.22225 -0.16934,0.10583 -0.70909,0.27516 -0.53974,0.16934 -1.04774,0.16934 -0.49742,0 -1.016,-0.127 -0.508,-0.13759 -1.05833,-0.4445 -0.539747,-0.3175 -0.973662,-0.762 -0.433915,-0.45508 -0.719665,-1.15358 -0.275165,-0.70908 -0.275165,-1.53458 0,-0.82549 0.275165,-1.49224 0.275166,-0.67733 0.698498,-1.11125 0.433916,-0.4445 0.984249,-0.74083 1.03716,-0.5715 2.08491,-0.5715 0.49741,0 1.00541,0.15875 0.51858,0.14817 0.78317,0.30692 l 0.25399,0.14816 q 0.1905,0.11642 0.29634,0.1905 0.27516,0.22225 0.27516,0.508 0,0.27517 -0.22225,0.58208 -0.41274,0.5715 -0.74083,0.5715 -0.1905,0 -0.53975,-0.23283 -0.44449,-0.35983 -1.18532,-0.35983 -0.68792,0 -1.35467,0.47624 -0.3175,0.23284 -0.52916,0.65617 -0.21167,0.42333 -0.21167,0.96308 0,0.52916 0.21167,0.9525 0.21166,0.42333 0.53975,0.66674 0.64558,0.46567 1.34408,0.46567 0.32808,0 0.61383,-0.0847 0.29633,-0.0847 0.42333,-0.16933 z"
         style="stroke-width:0.264583"
         id="path1537" />
      <path
         d="m 119.5891,105.67176 q 0.24341,0 0.35983,0.0212 0.127,0.0106 0.27516,0.0952 0.15875,0.0847 0.22225,0.28575 0.0635,0.20108 0.0635,0.53975 0,0.33866 -0.0635,0.53975 -0.0635,0.20108 -0.22225,0.28575 -0.15875,0.0741 -0.28575,0.0952 -0.11641,0.0106 -0.37041,0.0106 h -3.23849 v 1.06891 h 2.08491 q 0.254,0 0.37042,0.0212 0.12699,0.0106 0.28574,0.0952 0.27517,0.15875 0.27517,0.83608 0,0.74083 -0.40217,0.87841 -0.16933,0.0529 -0.53974,0.0529 h -2.07433 v 2.00024 q 0,0.254 -0.0212,0.37042 -0.0106,0.11642 -0.0952,0.27516 -0.14816,0.28575 -0.82549,0.28575 -0.74084,0 -0.86783,-0.40216 -0.0635,-0.16933 -0.0635,-0.53975 v -5.88431 q 0,-0.53975 0.20108,-0.73025 0.20108,-0.20108 0.762,-0.20108 z"
         style="stroke-width:0.264583"
         id="path1539" />
      <path
         d="m 123.58164,111.55607 h 3.25966 q 0.24341,0 0.35983,0.0212 0.127,0.0106 0.28575,0.0952 0.28575,0.14816 0.28575,0.82549 0,0.74083 -0.39158,0.86783 -0.17992,0.0635 -0.55034,0.0635 h -4.19098 q -0.74083,0 -0.86783,-0.40216 -0.0635,-0.16933 -0.0635,-0.53975 v -5.88431 q 0,-0.53975 0.20108,-0.73025 0.20108,-0.20108 0.762,-0.20108 h 4.16982 q 0.24341,0 0.35983,0.0212 0.127,0.0106 0.28575,0.0952 0.28575,0.14817 0.28575,0.8255 0,0.74083 -0.39158,0.86783 -0.17992,0.0635 -0.55034,0.0635 h -3.24907 v 1.06891 h 2.09549 q 0.24342,0 0.35984,0.0212 0.127,0.0106 0.28575,0.0952 0.28574,0.14816 0.28574,0.8255 0,0.74083 -0.40216,0.86783 -0.17992,0.0635 -0.55033,0.0635 h -2.07433 z"
         style="stroke-width:0.264583"
         id="path1541" />
    </g>
    <path
       style="fill:#000000;fill-opacity:1;stroke:#000000;stroke-width:0.264583px;stroke-linecap:butt;stroke-linejoin:miter;stroke-opacity:1"
       d="m 71.266341,0.08093576 c -0.2195,-0.4943599 -1.297255,-0.8789699 -1.322916,-2.64582996 1.240029,-0.20658 1.845333,-0.0842 2.447263,0.5567599 z"
       id="path1545"
       sodipodi:nodetypes="cccc" />
  </g>
</svg>
